# Blender 4.5.3 LTS
# www.blender.org
o Cube
v 0.125534 0.168218 -0.134584
v 0.152772 -0.099155 -0.185992
v 0.085426 0.121901 0.050447
v 0.153750 -0.056233 0.116063
v -0.162216 0.162216 -0.404662
v -0.041830 -0.135316 -0.380640
v -0.111570 0.162216 0.162216
v -0.162216 -0.020139 0.162216
v -0.162216 -0.162216 0.000000
v 0.079188 0.162216 -0.039883
v -0.162216 0.162216 -0.202309
v 0.162216 -0.162216 0.000000
v 0.162216 0.000000 -0.162216
v -0.162216 0.056615 0.162216
v 0.129098 0.076947 0.157091
v -0.162216 0.000000 -0.162216
v 0.162216 0.000000 0.000000
v -0.209917 0.000000 0.000000
v 0.000000 -0.162216 -0.162216
v 0.000000 0.108032 0.269152
v 0.000000 -0.162216 0.162216
v 0.000000 0.162216 -0.162216
v 0.000000 -0.162216 -0.057405
v 0.000000 0.221906 -0.077922
v 0.000000 0.000000 -0.302247
v 0.000000 0.000000 0.482359
vn 0.1605 0.9378 0.3077
vn -0.5022 0.7714 0.3909
vn -0.9571 -0.0696 -0.2814
vn -0.0000 -1.0000 -0.0000
vn 0.8225 0.5598 -0.1008
vn 0.5470 0.5470 -0.6337
vn 0.9770 0.2131 -0.0000
vn 0.3816 -0.9243 -0.0000
vn -0.8958 0.4296 0.1135
vn 0.1414 0.8079 -0.5721
vn -0.9314 -0.2739 0.2399
vn 0.9987 -0.0000 -0.0507
vn 0.1502 -0.6460 -0.7484
vn 0.9973 -0.0000 0.0728
vn -0.9011 -0.3067 -0.3067
vn -0.6157 -0.7029 0.3562
vn 0.6003 -0.7134 0.3615
vn 0.9622 -0.1780 -0.2062
vn -0.0556 0.9978 0.0360
vn -0.1023 -0.9895 -0.1023
vn -0.5470 0.5470 -0.6337
vn -0.5502 -0.6282 0.5502
vn 0.5190 0.7625 0.3864
vn 0.4590 0.8227 0.3355
vn -0.3803 0.9234 0.0528
vn -0.5888 0.2824 0.7574
vn -1.0000 -0.0000 -0.0000
vn 0.5744 -0.5832 0.5744
vn 0.8635 0.4800 0.1546
vn 0.2014 0.2014 -0.9586
vn 0.7685 0.4935 0.4074
vn 0.1147 -0.9390 -0.3242
vn -0.8989 0.4201 0.1249
vn -0.0000 1.0000 -0.0000
vn -0.9594 -0.0000 0.2821
vn 0.9955 -0.0948 -0.0000
vn 0.6488 0.1184 -0.7516
vn 0.9806 0.1388 0.1388
vn -0.9233 -0.2715 -0.2715
vn -0.8920 -0.0000 0.4520
vn 0.9237 0.0541 0.3794
vn -0.5502 0.5394 -0.6374
vn 0.6660 0.6088 -0.4311
vn 0.6392 -0.6392 -0.4277
vn 0.3992 0.8919 0.2125
vn 0.5414 0.7989 0.2621
vt 0.750000 0.564955
vt 0.835973 0.750000
vt 0.747856 0.837687
vt 0.583247 0.875000
vt 0.543626 1.000000
vt 0.500000 0.875000
vt 0.625000 0.187493
vt 0.500000 0.250000
vt 0.500000 0.125000
vt 0.375000 0.625000
vt 0.250000 0.750000
vt 0.250000 0.580765
vt 0.500000 0.625000
vt 0.671979 0.679998
vt 0.572564 0.762249
vt 0.625000 0.375000
vt 0.500000 0.500000
vt 0.500000 0.375000
vt 0.638699 0.479499
vt 0.424426 0.500000
vt 0.250000 0.500000
vt 0.625000 0.000000
vt 0.543626 0.000000
vt 0.750000 0.500000
vt 0.875000 0.562507
vt 0.484481 0.000000
vt 0.375000 0.125000
vt 0.375000 0.375000
vt 0.460060 0.718576
vt 0.375000 0.250000
vt 0.484481 1.000000
vt 0.375000 0.875000
vt 0.688979 0.594267
vt 0.125000 0.625000
vt 0.125000 0.500000
vt 0.125000 0.750000
vt 0.625000 0.960973
vt 0.625000 0.250000
vt 0.875000 0.500000
s 0
f 24/1/1 7/2/1 20/3/1
f 20/4/2 14/5/2 26/6/2
f 11/7/3 16/8/3 18/9/3
f 12/10/4 21/11/4 23/12/4
f 17/13/5 3/14/5 15/15/5
f 22/16/6 13/17/6 25/18/6
f 1/19/7 17/13/7 13/17/7
f 2/20/8 23/12/8 19/21/8
f 7/22/9 18/9/9 14/23/9
f 22/24/10 11/25/10 24/1/10
f 8/26/11 18/9/11 9/27/11
f 2/20/12 17/13/12 12/10/12
f 25/18/13 2/20/13 19/28/13
f 17/13/14 4/29/14 12/10/14
f 9/27/15 16/8/15 6/30/15
f 26/6/16 8/31/16 21/32/16
f 4/29/17 26/6/17 21/32/17
f 6/30/18 25/18/18 19/28/18
f 22/24/19 10/33/19 1/19/19
f 19/21/20 9/34/20 6/35/20
f 16/8/21 22/16/21 25/18/21
f 9/34/22 21/11/22 8/36/22
f 15/15/23 20/4/23 26/6/23
f 24/1/24 3/14/24 10/33/24
f 24/1/25 11/25/25 7/2/25
f 20/4/26 7/37/26 14/5/26
f 11/7/27 5/38/27 16/8/27
f 12/10/28 4/29/28 21/11/28
f 17/13/29 10/33/29 3/14/29
f 22/16/30 1/19/30 13/17/30
f 1/19/31 10/33/31 17/13/31
f 2/20/32 12/10/32 23/12/32
f 7/22/33 11/7/33 18/9/33
f 22/24/34 5/39/34 11/25/34
f 8/26/35 14/23/35 18/9/35
f 2/20/36 13/17/36 17/13/36
f 25/18/37 13/17/37 2/20/37
f 17/13/38 15/15/38 4/29/38
f 9/27/39 18/9/39 16/8/39
f 26/6/40 14/5/40 8/31/40
f 4/29/41 15/15/41 26/6/41
f 6/30/42 16/8/42 25/18/42
f 22/24/43 24/1/43 10/33/43
f 19/21/4 23/12/4 9/34/4
f 16/8/44 5/38/44 22/16/44
f 9/34/4 23/12/4 21/11/4
f 15/15/45 3/14/45 20/4/45
f 24/1/46 20/3/46 3/14/46
